<svg xmlns="http://www.w3.org/2000/svg" xmlns:xlink="http://www.w3.org/1999/xlink" width="834" height="834" viewBox="0 0 834 834" fill="none"><defs><filter id="filter_0" x="-4" y="-4" width="842" height="842" filterUnits="userSpaceOnUse" color-interpolation-filters="sRGB"><feFlood flood-opacity="0" result="BackgroundImageFix"/>
          <feColorMatrix in="SourceAlpha" type="matrix" values="0 0 0 0 0 0 0 0 0 0 0 0 0 0 0 0 0 0 127 0"/>
          <feOffset dx="0" dy="2"/>
          <feGaussianBlur stdDeviation="2"/>
          <feColorMatrix type="matrix" values="0 0 0 0 0 0 0 0 0 0 0 0 0 0 0 0 0 0 0.25 0"/>
          <feBlend mode="normal" in2="BackgroundImageFix" result="effect1_Shadow"/>
          <feBlend mode="normal" in="SourceGraphic" in2="effect1_Shadow" result="shape"/></filter><rect id="path_0" x="0" y="0" width="834" height="834" /></defs><g opacity="1" transform="translate(0 0)  rotate(0 417 417)"><g id="undefined" filter="url(#filter_0)"></g><mask id="bg-mask-0" fill="white"><use xlink:href="#path_0"></use></mask><g mask="url(#bg-mask-0)" ><g opacity="1" transform="translate(72.5 264)  rotate(0 344.5 153)"><g opacity="1" transform="translate(0 0)  rotate(0 76.26990049751244 153)"><path id="路径 1" fill-rule="evenodd" style="fill:#000000" transform="translate(38.84908789386402 229.5)  rotate(0 56.84535655058043 38.25)" opacity="1" d="M0,76.5L113.69,76.5L113.69,0L0,0L0,76.5Z " /><path id="路径 1" fill-rule="evenodd" style="fill:#000000" transform="translate(0 76.5)  rotate(0 76.26990049751244 38.25)" opacity="1" d="M0,76.5L152.54,76.5L152.54,0L0,0L0,76.5Z " /><path id="路径 2" fill-rule="evenodd" style="fill:#000000" transform="translate(0 0)  rotate(0 38.27777777777778 153)" opacity="1" d="M0,306L76.56,306L76.56,0L0,0L0,306Z " /></g><g opacity="1" transform="translate(535.3175787728027 0)  rotate(0 76.84121061359868 153)"><path id="路径 1" fill-rule="evenodd" style="fill:#000000" transform="translate(0 229.5)  rotate(0 76.84121061359868 38.25)" opacity="1" d="M0,0L0,76.5L153.68,76.5L153.68,0L0,0Z " /><path id="路径 1" fill-rule="evenodd" style="fill:#000000" transform="translate(0 76.5)  rotate(0 76.84121061359868 38.25)" opacity="1" d="M0,0L0,76.5L153.68,76.5L153.68,0L0,0Z " /><path id="路径 2" fill-rule="evenodd" style="fill:#000000" transform="translate(77.12686567164178 0)  rotate(0 38.27777777777778 153)" opacity="1" d="M0,0L0,306L76.56,306L76.56,0L0,0Z " /></g><g opacity="1" transform="translate(152.53980099502488 76.50000000000001)  rotate(0 191.38888888888889 114.74999999999997)"><path id="路径 1" fill-rule="evenodd" style="fill:#000000" transform="translate(0 0)  rotate(0 191.38888888888889 38.25)" opacity="1" d="M0,76.5L382.78,76.5L382.78,0L0,0L0,76.5Z " /><path id="路径 2" fill-rule="evenodd" style="fill:#000000" transform="translate(0 1.4210854715202004e-14)  rotate(0 38.27777777777778 114.74999999999997)" opacity="1" d="M0,229.5L76.56,229.5L76.56,0L0,0L0,229.5Z " /><path id="路径 2" fill-rule="evenodd" style="fill:#000000" transform="translate(153.11111111111111 1.4210854715202004e-14)  rotate(0 38.27777777777778 114.74999999999997)" opacity="1" d="M0,229.5L76.56,229.5L76.56,0L0,0L0,229.5Z " /><path id="路径 2" fill-rule="evenodd" style="fill:#000000" transform="translate(306.2222222222222 1.4210854715202004e-14)  rotate(0 38.27777777777778 114.74999999999997)" opacity="1" d="M0,229.5L76.56,229.5L76.56,0L0,0L0,229.5Z " /></g></g></g></g></svg>