<svg xmlns="http://www.w3.org/2000/svg" xmlns:xlink="http://www.w3.org/1999/xlink" width="834" height="834" viewBox="0 0 834 834" fill="none"><defs><filter id="filter_0" x="-4" y="-4" width="842" height="842" filterUnits="userSpaceOnUse" color-interpolation-filters="sRGB"><feFlood flood-opacity="0" result="BackgroundImageFix"/>
          <feColorMatrix in="SourceAlpha" type="matrix" values="0 0 0 0 0 0 0 0 0 0 0 0 0 0 0 0 0 0 127 0"/>
          <feOffset dx="0" dy="2"/>
          <feGaussianBlur stdDeviation="2"/>
          <feColorMatrix type="matrix" values="0 0 0 0 0 0 0 0 0 0 0 0 0 0 0 0 0 0 0.25 0"/>
          <feBlend mode="normal" in2="BackgroundImageFix" result="effect1_Shadow"/>
          <feBlend mode="normal" in="SourceGraphic" in2="effect1_Shadow" result="shape"/></filter><rect id="path_0" x="0" y="0" width="834" height="834" /></defs><g opacity="1" transform="translate(0 0)  rotate(0 417 417)"><g id="undefined" filter="url(#filter_0)"></g><mask id="bg-mask-0" fill="white"><use xlink:href="#path_0"></use></mask><g mask="url(#bg-mask-0)" ><g opacity="1" transform="translate(72.49878938640131 264)  rotate(0 344.50121061359874 153)"><path id="路径 1" fill-rule="evenodd" style="fill:#000000" transform="translate(475.38222222222225 230)  rotate(0 98.5 38)" opacity="1" d="M0,76L197,76L197,0L0,0L0,76Z " /><path id="路径 1" fill-rule="evenodd" style="fill:#000000" transform="translate(14.5 76)  rotate(0 330.5 38.5)" opacity="1" d="M0,77L661,77L661,0L0,0L0,77Z " /><g opacity="1" transform="translate(0 0)  rotate(0 114.5476782752902 153)"><path id="路径 1" fill-rule="evenodd" style="fill:#000000" transform="translate(16.047678275290195 230)  rotate(0 98.5 38)" opacity="1" d="M0,76L197,76L197,0L0,0L0,76Z " /><g opacity="1" transform="translate(0 0)  rotate(0 114.5476782752902 153)"><path id="路径 2" fill-rule="evenodd" style="fill:#000000" transform="translate(0 0)  rotate(0 38.27777777777778 153)" opacity="1" d="M0,306L76.56,306L76.56,0L0,0L0,306Z " /><path id="路径 2" fill-rule="evenodd" style="fill:#000000" transform="translate(152.53980099502485 76.5)  rotate(0 38.27777777777778 114.74999999999997)" opacity="1" d="M0,229.5L76.56,229.5L76.56,0L0,0L0,229.5Z " /></g></g><path id="路径 2" fill-rule="evenodd" style="fill:#000000" transform="translate(305.65091210613593 76.5)  rotate(0 38.27777777777778 114.74999999999997)" opacity="1" d="M0,229.5L76.56,229.5L76.56,0L0,0L0,229.5Z " /><g opacity="1" transform="translate(458.762023217247 0)  rotate(0 115.12019900497523 153)"><path id="路径 2" fill-rule="evenodd" style="fill:#000000" transform="translate(153.68484245439492 0)  rotate(0 38.27777777777778 153)" opacity="1" d="M0,0L0,306L76.56,306L76.56,0L0,0Z " /><path id="路径 2" fill-rule="evenodd" style="fill:#000000" transform="translate(0 76.5)  rotate(0 38.27777777777778 114.74999999999997)" opacity="1" d="M0,229.5L76.56,229.5L76.56,0L0,0L0,229.5Z " /></g></g></g></g></svg>